<?xml version="1.0" encoding="utf-8"?>
<!-- Generator: Adobe Illustrator 23.0.1, SVG Export Plug-In . SVG Version: 6.00 Build 0)  -->
<svg version="1.1" id="Capa_1" xmlns="http://www.w3.org/2000/svg" xmlns:xlink="http://www.w3.org/1999/xlink" x="0px" y="0px"
	 viewBox="0 0 600 600" style="enable-background:new 0 0 600 600;" xml:space="preserve">
<style type="text/css">
	.st0{fill:url(#SVGID_1_);}
	.st1{fill:#F8CD50;}
	.st2{fill:#1464A5;}
	.st3{fill:url(#SVGID_2_);}
	.st4{fill-rule:evenodd;clip-rule:evenodd;fill:#FFFFFF;}
	.st5{fill:#EAF9FA;}
	.st6{fill:#2DCCCD;}
</style>
<title>Mesa de trabajo 1 copia 3</title>
<g>
	<g>
		
			<linearGradient id="SVGID_1_" gradientUnits="userSpaceOnUse" x1="95.9375" y1="647.0234" x2="402.1876" y2="71.0434" gradientTransform="matrix(1 0 0 -1 0 600)">
			<stop  offset="0" style="stop-color:#192647"/>
			<stop  offset="0" style="stop-color:#192647;stop-opacity:0.5"/>
			<stop  offset="1" style="stop-color:#192647;stop-opacity:0"/>
		</linearGradient>
		<path class="st0" d="M537.1,395h-52c0-0.6,0-1.1,0-1.7v-98.1c0-7.9-6.1-14.4-14-14.9v-59c0-70-56.8-126.8-126.8-126.8
			s-126.8,56.8-126.8,126.8v59h-4.5c-8.2,0-14.9,6.7-14.9,14.9l0,0v98.1c0,0.6,0,1.2,0,1.7h-47.5c-22.9,0-41.4,18.6-41.4,41.4
			s18.6,41.4,41.4,41.4h75.1c27,37,70.1,58.9,115.9,58.9l0,0c45.8,0,88.9-21.8,115.9-58.9h79.5c22.9,0,41.4-18.6,41.4-41.4
			S560,395,537.1,395L537.1,395L537.1,395z M261.1,221.3c0-46,37.3-83.2,83.3-83.2c45.9,0,83.2,37.3,83.2,83.2v59H261.1L261.1,221.3
			z"/>
		<path class="st1" d="M415,170.6c0-67.5-54.8-122.3-122.3-122.3c-67.5,0-122.3,54.7-122.3,122.3v57.1h42v-57.1
			c0-44.3,35.9-80.3,80.3-80.3s80.3,35.9,80.3,80.3c0,0,0,0,0,0v57.1h42L415,170.6z"/>
		<path class="st2" d="M169.6,227.7h249.1c8.2,0,14.9,6.7,14.9,14.9v0v98.1c0,79.2-64.2,143.5-143.5,143.5c0,0,0,0,0,0l0,0
			c-79.2,0-143.5-64.2-143.5-143.5v-90C146.6,238,156.9,227.7,169.6,227.7L169.6,227.7z"/>
		
			<linearGradient id="SVGID_2_" gradientUnits="userSpaceOnUse" x1="433.53" y1="244.0699" x2="209" y2="244.0699" gradientTransform="matrix(1 0 0 -1 0 600)">
			<stop  offset="0" style="stop-color:#043263;stop-opacity:0.5"/>
			<stop  offset="1" style="stop-color:#043263;stop-opacity:0"/>
		</linearGradient>
		<path class="st3" d="M418.6,227.7h-83L209,459.1c23.8,16.4,52.1,25.1,81,25l0,0c79.2,0,143.5-64.2,143.5-143.4c0,0,0,0,0,0v-98.1
			C433.5,234.4,426.9,227.7,418.6,227.7z"/>
		<path class="st4" d="M290.2,316.7c12.6-0.1,22.8-10.4,22.7-23s-10.4-22.8-23-22.7s-22.8,10.4-22.7,23c0,0,0,0,0,0.1
			C267.3,306.6,277.6,316.7,290.2,316.7"/>
		<path class="st4" d="M260.8,361v-8.4c0-19.2,11.5-36.7,25.6-36.7h7.6c14.1,0,25.6,17.4,25.6,36.7v8.4"/>
		<path class="st5" d="M526.9,383.9c0,22.9-18.6,41.4-41.4,41.4l0,0H99.1c-22.9,0-41.4-18.6-41.4-41.4l0,0
			c0-22.9,18.5-41.4,41.4-41.4h386.4C508.3,342.4,526.9,361,526.9,383.9C526.9,383.8,526.9,383.8,526.9,383.9L526.9,383.9z"/>
		<path class="st6" d="M173.2,382.8c0,13.3-10.7,24-24,24s-24-10.7-24-24s10.7-24,24-24S173.2,369.5,173.2,382.8z"/>
		<path class="st6" d="M269.2,382.8c0,13.3-10.7,24-24,24c-13.3,0-24-10.7-24-24s10.7-24,24-24C258.5,358.8,269.2,369.5,269.2,382.8
			z"/>
		<path class="st6" d="M365.1,382.8c0,13.3-10.7,24-24,24s-24-10.7-24-24s10.7-24,24-24S365.1,369.5,365.1,382.8z"/>
		<path class="st6" d="M461.1,382.8c0,13.3-10.7,24-24,24s-24-10.7-24-24s10.7-24,24-24S461.1,369.5,461.1,382.8z"/>
	</g>
</g>
</svg>
